<svg width="28" height="34" viewBox="0 0 28 34" fill="none" xmlns="http://www.w3.org/2000/svg">
<path d="M27.3417 25.3835C27.3417 21.1487 24.86 17.4907 21.2702 15.7869V9.49535C21.2702 8.92235 21.0691 8.36834 20.6973 7.93195L14.9142 1.07503C14.6714 0.786641 14.326 0.642445 13.9845 0.642445C13.643 0.642445 13.2977 0.786641 13.0548 1.07503L7.2718 7.93195C6.90245 8.36923 6.69951 8.92296 6.69881 9.49535V15.7869C3.10908 17.4907 0.62738 21.1487 0.62738 25.3835H6.566C6.47872 25.6567 6.43318 25.9527 6.43318 26.2866C6.43318 27.1253 6.72158 27.9449 7.24524 28.5938C7.67267 29.1245 8.23877 29.5264 8.88073 29.7549C9.75729 31.8041 11.7495 33.1246 13.9845 33.1246C15.0888 33.1246 16.1589 32.7982 17.0734 32.1835C17.9689 31.584 18.6633 30.7453 19.0845 29.7549C19.7262 29.5278 20.2924 29.1272 20.72 28.5976C21.2444 27.9428 21.5307 27.1293 21.5321 26.2904C21.5321 25.9717 21.4903 25.6681 21.4144 25.3873H27.3417V25.3835ZM23.4825 21.0349C23.8392 21.5889 24.1276 22.1846 24.3363 22.8032H21.1185V18.6556C22.0652 19.2734 22.8708 20.0842 23.4825 21.0349ZM9.27917 15.7869V9.55227L13.9845 3.97414L18.6899 9.55227V22.8032H9.27917V15.7869ZM3.63274 22.8032C3.84144 22.1846 4.12984 21.5889 4.48653 21.0349C5.10506 20.0786 5.90952 19.2703 6.8506 18.6556V22.8032H3.63274ZM18.3901 27.2125C18.1928 27.3264 17.9651 27.3719 17.7412 27.3416L17.0013 27.2505L16.895 27.9866C16.6901 29.4248 15.4379 30.5101 13.9845 30.5101C12.5312 30.5101 11.2789 29.4248 11.074 27.9866L10.9678 27.2467L10.2278 27.3416C10.0029 27.3684 9.77527 27.3218 9.57894 27.2087C9.24881 27.019 9.0439 26.6661 9.0439 26.2828C9.0439 25.8806 9.26778 25.5467 9.59792 25.3797H18.3749C18.7089 25.5505 18.9289 25.8844 18.9289 26.2828C18.9251 26.6699 18.7202 27.0266 18.3901 27.2125ZM12.1631 12.6335C12.1631 13.1166 12.355 13.5799 12.6966 13.9215C13.0382 14.263 13.5015 14.4549 13.9845 14.4549C14.4676 14.4549 14.9309 14.263 15.2725 13.9215C15.6141 13.5799 15.806 13.1166 15.806 12.6335C15.806 12.1504 15.6141 11.6872 15.2725 11.3456C14.9309 11.004 14.4676 10.8121 13.9845 10.8121C13.5015 10.8121 13.0382 11.004 12.6966 11.3456C12.355 11.6872 12.1631 12.1504 12.1631 12.6335Z" fill="#35BFEE"/>
</svg>
