<svg width="897" height="129" viewBox="0 0 897 129" fill="none" xmlns="http://www.w3.org/2000/svg">
<rect x="1.48438" y="1.37891" width="895" height="127" rx="4.5" fill="#EBF9FD"/>
<path d="M25.4322 70.2079C25.365 69.3535 25.3132 68.4981 25.2719 67.6447" stroke="black" stroke-width="0.392341" stroke-miterlimit="10"/>
<path d="M74.0219 100.94H49.636" stroke="#CCDDE2" stroke-width="0.392341" stroke-miterlimit="10"/>
<path d="M81.1412 39.8507C81.1412 39.8507 88.3278 36.4571 94.4248 43.0783C96.4168 45.2421 97.7761 48.1135 97.8721 51.076C97.9157 52.5216 97.6827 53.9621 97.1857 55.3202C96.6798 56.7064 95.7716 57.6242 95.0737 58.8587C94.0033 60.7624 96.2411 61.0994 97.442 62.0219C98.2402 62.6403 98.9973 63.3098 99.7086 64.0264C101.312 65.6273 102.722 67.4099 103.911 69.3381C106.267 73.1788 107.685 77.5198 108.051 82.0101C108.413 86.4376 108.135 91.2453 105.865 95.1784C104.773 97.0725 103.127 98.9301 101.103 99.8133C98.4155 100.985 95.3963 100.941 92.5239 100.941H86.4116" stroke="#CCDDE2" stroke-width="0.392341" stroke-miterlimit="10"/>
<path d="M51.1846 84.0923C50.9437 85.8069 50.5846 87.7739 50.1882 89.7429L49.7206 89.8763C48.2244 90.2966 46.6354 90.2501 45.1664 89.7429L45.7789 87.6616L42.0502 76.8136C42.0502 76.8136 44.9005 75.892 47.241 75.2075L47.5098 75.196C48.7885 75.4658 51.4237 76.4786 51.5062 80.2715C51.512 80.4539 51.5062 80.6459 51.5062 80.8552C51.8778 82.0792 51.7299 83.1583 51.1846 84.0923Z" fill="#3FBDF1"/>
<path d="M42.4083 42.7989C42.3715 42.7053 42.2995 42.6299 42.2079 42.5889C42.1162 42.5477 42.012 42.5442 41.9177 42.5791C41.8648 42.595 41.8161 42.6222 41.7747 42.6587C41.6269 42.7787 41.5933 42.989 41.5885 43.1887C41.575 43.6447 41.5491 44.1016 41.5155 44.5557C41.5155 44.5864 41.5107 44.621 41.5107 44.6517C41.4896 45.0175 41.5049 45.461 41.3494 45.7797C41.3394 45.804 41.3224 45.8247 41.3005 45.8392C41.2486 45.8632 41.1939 45.8114 41.1603 45.7643C41.0643 45.6242 40.9683 45.4869 40.8723 45.3439C40.7965 45.2296 40.711 45.1058 40.5785 45.0693C40.3817 45.0146 40.1945 45.1883 40.0861 45.365C39.7357 45.941 39.7021 46.8847 40.2445 47.3675C40.7869 47.8504 39.5725 48.7999 38.7027 49.1992C38.5571 49.2811 38.4044 49.3499 38.2467 49.4047C38.239 49.4047 38.5606 49.4767 38.5529 49.4795C37.8761 49.7151 37.1711 49.8601 36.4563 49.9106C35.6077 49.9672 34.7801 49.8607 34.1782 49.492C34.2041 49.396 34.4096 48.724 34.4221 48.628C34.4662 48.293 34.4979 47.9608 34.5181 47.6239C34.5545 46.9912 34.5517 46.3576 34.5277 45.7269C34.4403 43.4575 34.8445 41.5509 35.7814 41.26C35.8553 41.2379 35.9263 41.2066 35.9926 41.1669C36.415 40.9336 36.6406 40.4411 36.4467 39.9765C36.4333 39.9448 36.4179 39.9141 36.4045 39.8805C36.3893 39.8474 36.3719 39.8153 36.3526 39.7845C38.1824 39.2162 39.4246 39.6107 40.6803 40.2981C40.9192 40.4891 41.1438 40.6973 41.3523 40.9211C41.8437 41.4547 42.2052 42.0947 42.4083 42.7912V42.7989Z" fill="#3FBDF1"/>
<path d="M86.3923 64.6187H80.1523V49.7042C80.1523 49.7042 79.0003 62.6632 75.8438 70.0053H56.5181C58.7961 68.5576 60.623 66.3707 61.8393 64.0168C62.3193 63.0856 63.0873 61.7032 64.3641 62.0661C64.6675 62.1515 65.1139 62.2063 65.3395 61.9288C65.4174 61.8224 65.4615 61.6949 65.4662 61.5631C65.5757 60.2037 64.1664 59.0594 63.0048 58.6984C61.8432 58.3375 60.4857 58.5064 59.5613 59.3503C58.895 59.9599 58.4774 60.7691 57.9897 61.5189C57.697 61.9632 57.35 62.3693 56.9568 62.7275C57.4579 59.6843 57.9043 56.7755 57.9686 55.7051C59.1907 54.7403 60.0883 53.1669 60.407 51.7749C60.7574 50.2543 61.0665 48.7672 61.6109 47.3435L66.0662 47.3589C66.2339 47.3589 66.3949 47.2923 66.5135 47.1736C66.6321 47.055 66.6989 46.8941 66.6989 46.7263V39.3266C66.6991 39.1603 66.6335 39.0008 66.5164 38.8827C66.3992 38.7647 66.2402 38.6979 66.0739 38.6968L63.0403 38.6709C64.1428 38.4405 65.2606 38.2912 66.3849 38.2245C66.408 38.2245 66.4291 38.2245 66.4493 38.2245C67.1894 38.1755 68.4864 38.1544 69.2333 38.1467C68.3433 38.6267 67.7933 39.6463 67.8893 40.5467C67.9062 40.7386 67.9551 40.9261 68.0342 41.1016C68.7945 42.772 70.7971 43.2655 72.4502 42.7797C74.2896 42.2431 75.6413 40.5515 75.5606 38.6056C76.7126 38.7746 77.8531 38.989 78.9821 39.2488C80.6976 39.6434 82.3709 40.1752 83.7273 41.3349C84.9101 42.3419 85.9123 43.6389 86.376 45.1048C88.367 51.3727 87.7545 58.3672 86.3923 64.6187Z" fill="#2E2E2E"/>
<path d="M58.0188 55.7051C57.8786 57.9957 57.5177 60.2843 57.126 62.5672" stroke="black" stroke-width="0.392341" stroke-miterlimit="10"/>
<path d="M61.661 47.3435C61.1157 48.7672 60.8075 50.2543 60.4571 51.7749C60.1355 53.1621 59.2398 54.7403 58.0187 55.7051C56.9934 56.5144 55.7378 56.8955 54.3938 56.3848C52.5909 55.6975 51.9582 53.7103 51.7374 51.9583C51.4505 49.7767 51.433 47.5681 51.6856 45.3823C51.94 45.9477 52.9797 47.668 56.2043 47.2159C56.2909 47.2806 56.395 47.3177 56.5029 47.3224L61.661 47.3435Z" fill="#2E2E2E"/>
<path d="M59.8504 42.4216C60.6011 42.2296 61.0581 42.9515 60.9467 43.5007C60.7653 44.3963 59.477 44.7487 58.7099 44.765C58.0955 44.7775 56.5979 44.6152 55.9874 44.5442" stroke="black" stroke-width="0.392341" stroke-miterlimit="10"/>
<path d="M55.7349 42.8651C56.6637 43.1336 57.6471 43.1498 58.5842 42.9122C59.3723 42.7096 60.3035 42.3362 60.7163 41.5864C60.9573 41.1506 60.7653 40.4555 60.2622 40.3019C59.6814 40.1263 59.1438 40.7042 58.6178 40.8501C58.2784 40.9425 57.9319 41.0068 57.5819 41.0421C57.4859 41.0527 57.3957 41.0603 57.3026 41.068C56.8127 41.1073 56.3202 41.1037 55.8309 41.0575C55.7788 41.0575 55.7281 41.041 55.6859 41.0106C55.6437 40.9801 55.6122 40.9371 55.5958 40.8876C55.5795 40.8383 55.5791 40.7849 55.5947 40.7353C55.6104 40.6857 55.6413 40.6422 55.683 40.6111L55.7714 40.5467" stroke="black" stroke-width="0.392341" stroke-miterlimit="10"/>
<path d="M61.661 47.3435C61.1157 48.7672 60.8075 50.2543 60.4571 51.7749C59.8658 54.3275 57.3439 57.508 54.3938 56.3829C52.5909 55.6955 51.9583 53.7083 51.7375 51.9563C51.3919 49.2434 51.4207 46.4565 51.9295 43.7666C52.3519 41.5509 53.1016 39.2239 55.2578 38.1343L56.2696 37.6283C56.5109 37.5064 56.7903 37.4838 57.0482 37.5652C57.3059 37.6467 57.5217 37.8258 57.6491 38.0642C57.7268 38.2124 57.768 38.377 57.7691 38.5442C57.7701 38.5687 57.7682 38.5931 57.7634 38.6171" stroke="black" stroke-width="0.392341" stroke-miterlimit="10"/>
<path d="M82.2126 68.1679C82.7339 68.1517 83.2557 68.1649 83.7755 68.2072C84.1999 68.2418 84.6395 68.2619 85.0437 68.4203C85.3768 68.5528 85.7243 68.8687 85.7071 69.2546C85.6754 70.0111 84.6847 70.0053 84.1413 70.0053" stroke="black" stroke-width="0.392341" stroke-miterlimit="10"/>
<path opacity="0.54" d="M72.889 67.4469L77.4067 55.8722C77.4627 55.6478 77.4666 55.4137 77.4185 55.1876C77.3703 54.9614 77.2711 54.7494 77.1285 54.5674C76.986 54.3853 76.8038 54.2383 76.5958 54.1373C76.3878 54.0364 76.1595 53.9842 75.9283 53.9848H57.9879C57.5857 53.9857 57.1957 54.1218 56.8802 54.3711C56.5648 54.6204 56.3422 54.9685 56.2483 55.3595L51.2967 66.9314C51.243 67.1548 51.2406 67.3874 51.2898 67.6118C51.339 67.8363 51.4385 68.0467 51.5806 68.2271C51.7228 68.4076 51.9042 68.5535 52.1108 68.6538C52.3175 68.754 52.5444 68.8062 52.7741 68.8063H71.1485C71.5486 68.806 71.9371 68.6722 72.2525 68.4258C72.5679 68.1796 72.7918 67.835 72.889 67.4469Z" fill="white"/>
<path d="M72.889 67.4469L77.4067 55.8722C77.4627 55.6478 77.4666 55.4137 77.4185 55.1876C77.3703 54.9614 77.2711 54.7494 77.1285 54.5674C76.986 54.3853 76.8038 54.2383 76.5958 54.1373C76.3878 54.0364 76.1595 53.9842 75.9283 53.9848H57.9879C57.5857 53.9857 57.1957 54.1218 56.8802 54.3711C56.5648 54.6204 56.3422 54.9685 56.2483 55.3595L51.2967 66.9314C51.243 67.1548 51.2406 67.3874 51.2898 67.6118C51.339 67.8363 51.4385 68.0467 51.5806 68.2271C51.7228 68.4076 51.9042 68.5535 52.1108 68.6538C52.3175 68.754 52.5444 68.8062 52.7741 68.8063H71.1485C71.5486 68.806 71.9371 68.6722 72.2525 68.4258C72.5679 68.1796 72.7918 67.835 72.889 67.4469Z" fill="#3FBDF1"/>
<path d="M72.889 67.4469L77.4067 55.8722C77.4627 55.6478 77.4666 55.4137 77.4185 55.1876C77.3703 54.9614 77.2711 54.7494 77.1285 54.5674C76.986 54.3853 76.8038 54.2383 76.5958 54.1373C76.3878 54.0364 76.1595 53.9842 75.9283 53.9848H57.9879C57.5857 53.9857 57.1957 54.1218 56.8802 54.3711C56.5648 54.6204 56.3422 54.9685 56.2483 55.3595L51.2967 66.9314C51.243 67.1548 51.2406 67.3874 51.2898 67.6118C51.339 67.8363 51.4385 68.0467 51.5806 68.2271C51.7228 68.4076 51.9042 68.5535 52.1108 68.6538C52.3175 68.754 52.5444 68.8062 52.7741 68.8063H71.1485C71.5486 68.806 71.9371 68.6722 72.2525 68.4258C72.5679 68.1796 72.7918 67.835 72.889 67.4469Z" stroke="black" stroke-width="0.392341" stroke-linecap="square" stroke-linejoin="round"/>
<path d="M72.2276 66.9784L76.3959 56.3003C76.4475 56.0937 76.4515 55.8779 76.4072 55.6695C76.363 55.4611 76.2719 55.2656 76.1407 55.0977C76.0096 54.9298 75.8419 54.794 75.6504 54.7007C75.4589 54.6073 75.2486 54.5588 75.0356 54.5589H58.4804C58.1088 54.5588 57.7479 54.6838 57.456 54.9139C57.164 55.144 56.9582 55.4656 56.8714 55.8271L52.3124 66.5032C52.2632 66.7092 52.2614 66.9237 52.307 67.1305C52.3526 67.3373 52.4444 67.5311 52.5755 67.6974C52.7067 67.8636 52.8738 67.998 53.0643 68.0905C53.2548 68.1829 53.4638 68.231 53.6756 68.2312H70.6225C70.9915 68.2315 71.3499 68.1083 71.6408 67.8813C71.9317 67.6543 72.1383 67.3364 72.2276 66.9784Z" fill="#3FBDF1"/>
<path d="M59.6745 56.5269C59.8944 56.1976 60.2505 56.0469 60.4771 56.1995C60.7037 56.3522 60.7037 56.7362 60.4848 57.0635C60.4502 57.1139 60.4117 57.1615 60.3696 57.2056L61.9958 60.6395C62.255 60.4667 62.5401 60.4235 62.7456 60.5599C62.8114 60.608 62.866 60.6698 62.9054 60.741C62.945 60.8123 62.9683 60.8914 62.9741 60.9727L64.0857 60.5983L65.0573 60.2709L65.3741 60.1672C65.4142 60.0479 65.4697 59.9343 65.5392 59.8293C65.8473 59.3656 66.3513 59.1573 66.6653 59.3685C66.9792 59.5797 66.983 60.1125 66.6835 60.5723L68.5363 63.1019C68.9405 62.7707 69.4157 62.668 69.7449 62.8869C70.1933 63.1855 70.2 63.964 69.7603 64.6245C69.7421 64.6514 69.7219 64.6725 69.7037 64.6975L70.9363 66.3832L70.9478 66.3995C71.0109 66.4947 71.0336 66.6109 71.0108 66.7227C70.9881 66.8345 70.922 66.9327 70.8269 66.9957C70.7318 67.0588 70.6156 67.0814 70.5037 67.0587C70.392 67.036 70.2938 66.9699 70.2307 66.8747L69.1363 65.2226C68.7897 65.4232 68.4211 65.4616 68.1513 65.2821C67.7232 64.9941 67.7021 64.276 68.0841 63.6357L66.311 60.9592C66.0489 61.1368 65.76 61.1819 65.5526 61.0447C65.4374 60.9629 65.3589 60.8391 65.3337 60.7L65.2013 60.7365L64.2134 61.0063L62.9481 61.348C62.9087 61.4996 62.8438 61.6434 62.7561 61.7733C62.448 62.236 61.944 62.4453 61.6301 62.2341C61.3161 62.0229 61.3113 61.4805 61.6195 61.0168C61.6647 60.9488 61.7154 60.8845 61.7712 60.8248L60.2227 57.3266C60.0365 57.4543 59.8301 57.4869 59.6822 57.388C59.4595 57.2402 59.4557 56.8523 59.6745 56.5269Z" fill="#D7E8F0"/>
<path d="M71.4547 56.7112H73.8546C73.9644 56.711 74.0717 56.6791 74.1636 56.6191C74.2555 56.5591 74.3278 56.4737 74.3721 56.3733C74.3852 56.343 74.3924 56.3103 74.3932 56.2773C74.393 56.2118 74.3668 56.149 74.3203 56.1028C74.274 56.0566 74.2111 56.0306 74.1455 56.0306H71.5948C71.7148 56.2312 71.6543 56.5125 71.4547 56.7112Z" fill="#D7E8F0"/>
<path d="M69.9033 56.4655C69.9035 56.5306 69.9297 56.5932 69.9759 56.6392C70.0221 56.6853 70.0847 56.7112 70.15 56.7112H71.4546C71.6543 56.5125 71.7148 56.2312 71.5948 56.0287H70.4428C70.3331 56.0286 70.2259 56.0604 70.134 56.1202C70.0422 56.18 69.9697 56.2653 69.9253 56.3656C69.9112 56.397 69.9037 56.431 69.9033 56.4655Z" fill="#3FBDF1"/>
<path d="M70.5033 56.7112C70.5103 56.7244 70.5183 56.7369 70.5273 56.7487C70.6982 56.9829 71.0697 57.005 71.3577 56.7947C71.3919 56.7695 71.4239 56.7416 71.4537 56.7112C71.6534 56.5125 71.7139 56.2312 71.5939 56.0287C71.5876 56.0154 71.5799 56.0028 71.5708 55.9912C71.4009 55.756 71.0294 55.7359 70.7414 55.9442C70.7073 55.9699 70.6752 55.9981 70.6454 56.0287C70.4457 56.2283 70.3852 56.5077 70.5033 56.7112Z" fill="white"/>
<path d="M69.3044 57.9717C69.3049 58.0371 69.3312 58.0996 69.3776 58.1456C69.424 58.1916 69.4867 58.2175 69.5521 58.2175H72.0702C71.9483 58.014 72.0088 57.7375 72.2084 57.5349H69.8401C69.7302 57.535 69.6228 57.567 69.5307 57.627C69.4387 57.687 69.3661 57.7723 69.3217 57.8728C69.3096 57.9044 69.3038 57.9379 69.3044 57.9717Z" fill="#3FBDF1"/>
<path d="M72.0665 58.2175H73.2511C73.3606 58.2175 73.4677 58.1858 73.5596 58.1261C73.6515 58.0665 73.724 57.9815 73.7686 57.8815C73.7821 57.8512 73.7896 57.8186 73.7907 57.7855C73.7908 57.753 73.7844 57.7209 73.7721 57.6909C73.7597 57.661 73.7416 57.6337 73.7187 57.6108C73.6957 57.5878 73.6684 57.5697 73.6385 57.5573C73.6084 57.5449 73.5764 57.5387 73.5439 57.5388H72.2047C72.0051 57.7346 71.9446 58.014 72.0665 58.2175Z" fill="#D7E8F0"/>
<path d="M72.0663 58.2175C72.0719 58.2307 72.0789 58.2433 72.0875 58.2549C72.2574 58.4901 72.6289 58.5112 72.9169 58.3019C72.9509 58.2762 72.983 58.2479 73.0129 58.2175C73.2107 58.0178 73.2711 57.7375 73.1531 57.5349C73.146 57.5219 73.1384 57.5095 73.13 57.4975C72.9582 57.2632 72.5867 57.2421 72.2987 57.4523C72.2645 57.4773 72.2324 57.5049 72.2027 57.5349C72.0049 57.7346 71.9444 58.0139 72.0663 58.2175Z" fill="white"/>
<path d="M71.2244 59.7131H72.7316C72.8413 59.7129 72.9486 59.6811 73.0406 59.6213C73.1326 59.5616 73.2053 59.4764 73.25 59.3762C73.2631 59.3458 73.2703 59.3132 73.2711 59.2802C73.2711 59.2144 73.2451 59.1513 73.1986 59.1047C73.1521 59.0581 73.0892 59.0317 73.0234 59.0315H71.3674C71.4864 59.2341 71.425 59.5135 71.2244 59.7131Z" fill="#3FBDF1"/>
<path d="M68.7838 59.4683C68.7839 59.5007 68.7904 59.5326 68.8029 59.5623C68.8154 59.5921 68.8335 59.6192 68.8565 59.6419C68.8794 59.6646 68.9066 59.6826 68.9365 59.6948C68.9663 59.7071 68.9983 59.7133 69.0305 59.7131H71.2241C71.4219 59.5135 71.4833 59.2331 71.3643 59.0296H69.3233C69.2134 59.0295 69.1059 59.0616 69.014 59.1218C68.9221 59.182 68.8497 59.2677 68.8059 59.3685C68.7918 59.3999 68.7842 59.434 68.7838 59.4683Z" fill="#D7E8F0"/>
<path d="M70.2758 59.7131C70.2827 59.7263 70.2908 59.7388 70.2998 59.7506C70.4697 59.9858 70.8403 60.0059 71.1292 59.7967C71.1633 59.7713 71.1954 59.7435 71.2252 59.7131C71.423 59.5135 71.4844 59.2331 71.3654 59.0296C71.3591 59.0164 71.3514 59.0038 71.3424 58.9922C71.1705 58.7589 70.8 58.7387 70.511 58.9471C70.477 58.9723 70.445 58.9999 70.415 59.0296C70.2172 59.2293 70.1558 59.5106 70.2758 59.7131Z" fill="white"/>
<path d="M61.4816 66.7672H62.9897C63.0993 66.767 63.2065 66.7351 63.2983 66.6753C63.3901 66.6155 63.4626 66.5304 63.5072 66.4303C63.5203 66.3999 63.5274 66.3673 63.5283 66.3343C63.5283 66.2686 63.5022 66.2056 63.4557 66.1592C63.4092 66.1127 63.3463 66.0866 63.2806 66.0866H61.6246C61.7408 66.2882 61.6793 66.5675 61.4816 66.7672Z" fill="#3FBDF1"/>
<path d="M55.4969 66.5224C55.497 66.5547 55.5036 66.5865 55.5161 66.6164C55.5284 66.6462 55.5467 66.6731 55.5696 66.6959C55.5925 66.7186 55.6196 66.7366 55.6495 66.7489C55.6794 66.7611 55.7114 66.7673 55.7437 66.7672H61.4816C61.6793 66.5675 61.7408 66.2872 61.6217 66.0847H56.0365C55.9266 66.0846 55.8193 66.1164 55.7273 66.1764C55.6355 66.2365 55.5631 66.322 55.519 66.4226C55.5053 66.4541 55.4978 66.488 55.4969 66.5224Z" fill="#D7E8F0"/>
<path d="M60.53 66.7672C60.5369 66.7803 60.545 66.7929 60.554 66.8047C60.724 67.0399 61.0945 67.06 61.3835 66.8517C61.4174 66.8258 61.4494 66.7976 61.4795 66.7672C61.6772 66.5675 61.7387 66.2872 61.6196 66.0847C61.6133 66.0713 61.6056 66.0587 61.5966 66.0472C61.4248 65.813 61.0542 65.7928 60.7652 66.0011C60.7311 66.0264 60.6989 66.0543 60.6692 66.0847C60.4724 66.2834 60.41 66.5647 60.53 66.7672Z" fill="white"/>
<path d="M23.5298 70.4642C23.5298 70.4642 20.3618 84.7749 28.5113 87.7643C36.6607 90.7538 58.6745 87.9458 49.5257 77.62C40.3769 67.2942 23.5298 70.4642 23.5298 70.4642Z" fill="#2E2E2E"/>
<path d="M63.072 38.6709C64.1796 38.4398 65.3025 38.2901 66.432 38.2226C66.456 38.2226 66.4761 38.2226 66.4972 38.2226C67.2393 38.1736 68.5392 38.1525 69.2812 38.1448" stroke="black" stroke-width="0.392341" stroke-miterlimit="10"/>
<path d="M57.5817 41.0392C57.5741 41.044 57.5693 41.0497 57.5616 41.0545" stroke="black" stroke-width="0.392341" stroke-miterlimit="10"/>
<path d="M70.2118 35.0229C69.6454 35.3205 68.9945 35.1189 68.7449 34.612" stroke="black" stroke-width="0.392341" stroke-miterlimit="10"/>
<path d="M66.9238 27.7893C66.8982 28.2298 67.0112 28.6671 67.2469 29.04C67.4827 29.413 67.8292 29.7027 68.238 29.8687C68.3245 29.71 68.4483 29.5749 68.599 29.4751C69.2355 29.0632 69.1222 30.1634 70.8502 29.8735C73.2454 29.4693 73.8559 30.3036 73.8559 30.3036C73.9087 30.3765 73.7599 30.8527 73.7388 30.94C73.6428 31.4517 73.5468 31.9605 73.4594 32.476C73.4031 32.7883 73.3462 33.0987 73.2886 33.4072C73.3322 33.365 73.3783 33.3255 73.4268 33.2892C73.8204 32.6748 74.3974 31.9855 75.0262 32.548C75.1524 32.6652 75.2491 32.8106 75.3084 32.9724C75.5964 33.7548 75.0454 34.2578 74.4012 34.5592C74.2313 34.662 74.0507 34.746 73.8627 34.8098C73.8943 35.0076 74.0259 35.7957 74.0259 35.7976C74.0393 35.8783 75.6386 34.8924 75.7721 34.7724C76.0131 34.4535 76.1991 34.0966 76.3222 33.7164C76.8194 32.1477 76.735 30.1202 75.7337 28.83C75.485 28.5103 75.6511 28.326 75.7231 28.0149C75.7266 27.9981 75.725 27.9807 75.7184 27.965C75.7119 27.9492 75.7008 27.9357 75.6865 27.9263C75.6722 27.9169 75.6555 27.912 75.6384 27.9122C75.6213 27.9125 75.6047 27.9178 75.5906 27.9276C75.0511 28.2664 74.0748 27.9199 74.0748 27.9199C70.9068 26.0171 69.2834 27.1941 68.5068 27.2536C68.1918 27.2752 67.8792 27.1862 67.6227 27.0021C67.5775 27.0912 67.509 27.1663 67.4245 27.2194C67.3399 27.2724 67.2425 27.3015 67.1427 27.3036L67.1119 27.4687C67.0884 27.5941 67.0219 27.7075 66.9238 27.7893Z" fill="#3FBDF1"/>
<path d="M68.2398 29.8725C67.8309 29.7066 67.4844 29.4169 67.2487 29.0439C67.0129 28.671 66.8999 28.2336 66.9256 27.7932C66.9349 27.624 66.9593 27.456 66.9985 27.2911L67.0264 27.2968C67.0641 27.3054 67.1029 27.3083 67.1416 27.3055C67.2413 27.3036 67.3387 27.2745 67.4233 27.2214C67.5079 27.1683 67.5764 27.0931 67.6216 27.004C67.648 26.9545 67.6665 26.901 67.6763 26.8456L67.8241 26.0421C67.8241 26.0421 68.3041 26.692 69.0721 26.6315C69.8401 26.5711 71.4635 25.3941 74.6401 27.2978C74.6401 27.2978 75.4024 27.5791 75.9419 27.2402C75.9559 27.2305 75.9725 27.2251 75.9896 27.2249C76.0067 27.2247 76.0234 27.2296 76.0377 27.239C76.0519 27.2484 76.063 27.2619 76.0696 27.2776C76.0761 27.2935 76.0777 27.3108 76.0744 27.3275C76.0024 27.6376 76.0504 27.8882 76.299 28.2079C77.3003 29.4981 77.3848 31.5256 76.8875 33.0943C76.6698 33.7444 76.2831 34.3248 75.7672 34.7762C75.6337 34.8962 74.0344 35.8821 74.0209 35.8015C74.0209 35.8015 73.8894 35.0114 73.8577 34.8136L73.85 34.7685L73.8952 34.7551C74.0662 34.7022 74.2336 34.638 74.3963 34.5631C75.0404 34.2616 75.5944 33.7586 75.3035 32.9762C75.2442 32.8145 75.1475 32.6691 75.0212 32.5519C74.3924 31.9893 73.8155 32.6786 73.4219 33.293C73.3458 33.4096 73.2833 33.5346 73.2356 33.6655C73.251 33.581 73.2664 33.4984 73.2827 33.414C73.3403 33.1048 73.3972 32.7945 73.4536 32.4827C73.5496 31.9701 73.6388 31.4613 73.7329 30.9467C73.7502 30.8594 73.9028 30.3832 73.85 30.3103C73.85 30.3103 73.2395 29.476 70.8443 29.8802C69.1163 30.1682 69.2296 29.0699 68.5931 29.4818C68.4425 29.5816 68.3185 29.7168 68.2321 29.8754C68.2053 29.9271 68.1816 29.9803 68.1611 30.0347C68.1576 30.0416 68.1547 30.0487 68.1524 30.0559C68.1092 30.1749 68.0699 30.2949 68.0315 30.412C67.6724 31.5535 67.4353 32.7861 67.562 33.9851C67.7166 35.4386 68.7755 37.1474 70.4603 37.0024C70.9904 36.9403 71.5074 36.7952 71.9924 36.5723" stroke="black" stroke-width="0.392341" stroke-miterlimit="10"/>
<path d="M68.4236 32.9703C68.5884 32.9656 68.7174 32.8003 68.7119 32.601C68.7062 32.4017 68.568 32.244 68.4032 32.2487C68.2384 32.2533 68.1093 32.4186 68.1149 32.6179C68.1206 32.8172 68.2587 32.9749 68.4236 32.9703Z" fill="black"/>
<path d="M70.6797 33.5763C70.8445 33.5716 70.9735 33.4063 70.968 33.2071C70.9623 33.0078 70.8241 32.85 70.6593 32.8547C70.4945 32.8594 70.3654 33.0247 70.371 33.2239C70.3767 33.4232 70.5148 33.581 70.6797 33.5763Z" fill="black"/>
<path d="M69.7056 33.7096C69.7056 33.7096 68.8329 33.9016 68.9212 33.4543C68.9481 33.3141 69.167 31.9375 69.167 31.9375C69.167 31.9375 68.76 31.1176 67.6953 31.3087" stroke="black" stroke-width="0.392341" stroke-miterlimit="10"/>
<path d="M70.0975 31.8146C70.0975 31.8146 71.4809 31.5794 72.0108 32.6843" stroke="black" stroke-width="0.392341" stroke-miterlimit="10"/>
<path d="M69.2965 38.1333C68.2069 38.7093 67.6252 40.0955 68.0812 41.0987C68.8415 42.7701 70.8431 43.2616 72.4972 42.7787C74.3365 42.2411 75.6882 40.5458 75.6076 38.6018" stroke="black" stroke-width="0.392341" stroke-miterlimit="10"/>
<path d="M75.8937 70.0043C79.0531 62.6623 80.2003 49.7032 80.2003 49.7032V67.7839C80.2002 68.0755 80.2575 68.3643 80.3691 68.6337C80.4806 68.9032 80.6442 69.148 80.8504 69.3542C81.0566 69.5604 81.3014 69.724 81.5709 69.8356C81.8404 69.9471 82.1291 70.0044 82.4208 70.0043H89.4288C89.6915 70.0085 89.9465 69.9153 90.1447 69.7429C90.3431 69.5706 90.4707 69.331 90.503 69.0703C90.5171 68.9266 90.501 68.7816 90.4556 68.6446C90.4102 68.5076 90.3366 68.3816 90.2396 68.2748C90.1425 68.168 90.0242 68.0827 89.8921 68.0244C89.7601 67.9662 89.6173 67.9362 89.4729 67.9365H86.6025C86.4881 67.9361 86.3752 67.9096 86.2726 67.859C86.1699 67.8084 86.0801 67.7351 86.0101 67.6446C85.94 67.5539 85.8917 67.4486 85.8686 67.3365C85.8455 67.2244 85.8483 67.1085 85.8768 66.9976C87.6048 60.1816 88.6733 52.181 86.424 45.101C85.9593 43.6399 84.9581 42.3381 83.7753 41.332C82.4179 40.1723 80.7446 39.6405 79.0301 39.2469C77.8992 38.9877 76.7584 38.7732 75.6077 38.6037C75.6043 38.6049 75.6006 38.6049 75.5971 38.6037C75.5894 38.6037 75.5817 38.6037 75.5769 38.6037H75.5693H75.5587H75.5433" stroke="black" stroke-width="0.392341" stroke-miterlimit="10"/>
<path d="M74.8838 35.3416L74.7571 37.6351C74.745 37.8592 74.8153 38.08 74.9549 38.2558C75.0944 38.4316 75.2935 38.5502 75.5145 38.5893H75.5433C75.5483 38.588 75.5537 38.588 75.5587 38.5893H75.5635H75.5769" stroke="black" stroke-width="0.392341" stroke-miterlimit="10"/>
<path d="M75.5971 38.5999H75.5769H75.5692H75.5635H75.5587H75.5433H75.5145C75.2935 38.5608 75.0944 38.4421 74.9549 38.2664C74.8153 38.0905 74.745 37.8697 74.7571 37.6456L74.8838 35.3522" stroke="black" stroke-width="0.392341" stroke-miterlimit="10"/>
<path d="M69.478 36.8594C69.4156 36.8344 69.478 39.4207 67.9352 40.5439" stroke="black" stroke-width="0.392341" stroke-miterlimit="10"/>
<path d="M48.8237 70.0053H43.8817" stroke="black" stroke-width="0.392341" stroke-miterlimit="10"/>
<path d="M97.1049 70.0053H56.5181" stroke="black" stroke-width="0.392341" stroke-miterlimit="10"/>
<path d="M34.5283 45.724C34.5759 46.6923 34.5413 47.6628 34.4246 48.6251C34.2749 49.756 33.2294 51.1931 33.0029 52.3115C32.6793 53.9205 33.1689 55.5832 33.8409 57.077C34.6531 58.8827 35.9328 60.6991 35.808 62.7669C35.744 63.6675 35.476 64.5417 35.0243 65.3235C34.5726 66.1051 33.9489 66.7738 33.2006 67.2789C32.1755 67.9646 31.0047 68.4019 29.7811 68.5557C29.6102 68.5759 29.4365 68.5922 29.2627 68.597C29.1667 68.597 29.0707 68.5864 28.9747 68.5787C25.7203 68.3032 22.3823 65.8207 22.39 62.3647C22.39 60.1567 24.0681 58.4287 24.3513 56.2859C24.5251 54.9755 24.1411 53.6143 24.4963 52.3423C25.0723 50.3109 27.2985 49.2031 28.2739 47.333C28.992 45.9525 29.1091 44.3416 29.6774 42.8939C30.4685 40.8779 31.7318 38.5739 33.4598 38.3819C33.9612 38.4388 34.4459 38.5969 34.8845 38.8466C35.9558 39.4226 36.2285 39.4591 36.4464 39.9727C36.6691 40.5093 36.3369 41.0824 35.7821 41.2543C34.8451 41.5509 34.4409 43.4546 34.5283 45.724Z" fill="#3FBDF1"/>
<path d="M35.4702 39.1586C38.283 38.3435 40.0705 39.5426 41.3492 40.925C42.6279 42.3074 42.5684 43.877 42.5684 43.877" stroke="black" stroke-width="0.392341" stroke-miterlimit="10"/>
<path d="M44.1945 66.196C44.152 68.3935 43.8736 70.5801 43.3641 72.7183" stroke="black" stroke-width="0.392341" stroke-miterlimit="10"/>
<path d="M51.1843 84.0924C50.1542 85.8645 47.711 87.1231 44.7216 87.9064C39.4166 89.2965 32.3932 89.188 28.5129 87.7634C20.3587 84.7749 23.5286 70.4642 23.5286 70.4642C23.5286 70.4642 37.632 67.8098 47.0361 75.2642C47.9346 75.9743 48.7685 76.7624 49.5283 77.6191C50.5679 78.7951 51.2063 79.8712 51.5078 80.8543C51.8774 82.0792 51.7295 83.1583 51.1843 84.0924Z" stroke="black" stroke-width="0.392341" stroke-miterlimit="10"/>
<path d="M45.7785 87.6645C45.7785 87.6645 40.8373 101.38 49.1385 104.883C57.4396 108.386 18.6546 108.853 27.2159 104.883C35.7772 100.913 30.8562 88.5026 30.8562 88.5026" stroke="black" stroke-width="0.392341" stroke-miterlimit="10"/>
<path d="M55.8297 41.0546C55.727 40.7407 55.7693 39.6491 55.8029 39.0328C55.8093 38.9165 55.8608 38.8071 55.9465 38.7281C56.0321 38.6491 56.1452 38.6065 56.2617 38.6095L66.1238 38.6959C66.2901 38.6974 66.4491 38.7645 66.5661 38.8826C66.6831 39.0008 66.7488 39.1603 66.7488 39.3266V46.7272C66.7488 46.8103 66.7324 46.8925 66.7005 46.9692C66.6686 47.0459 66.6219 47.1156 66.563 47.1742C66.5042 47.2328 66.4343 47.2792 66.3574 47.3107C66.2806 47.3423 66.1982 47.3583 66.1152 47.3579L56.5046 47.3224C56.3654 47.3167 56.2338 47.2573 56.1373 47.1568C56.0408 47.0562 55.9871 46.9222 55.9872 46.7829V46.2184C56.6707 46.5371 57.9629 46.6351 57.9629 46.6351C58.4227 46.6226 59.1494 46.5669 59.5478 46.3384C59.9126 46.1291 60.3734 45.8287 60.4358 45.3736C60.4599 45.1977 60.4133 45.0193 60.3063 44.8775C60.1993 44.7357 60.0405 44.6421 59.8646 44.6171C59.7589 44.596 59.6496 44.6037 59.5478 44.6392" stroke="black" stroke-width="0.392341" stroke-miterlimit="10"/>
<path d="M65.4549 61.5631C65.4504 61.6951 65.4058 61.8226 65.3272 61.9288C65.1016 62.2063 64.6552 62.1515 64.3518 62.0661C63.076 61.7032 62.3099 63.0856 61.828 64.0168C60.6107 66.3707 58.7848 68.5576 56.5067 70.0053C56.3589 70.1013 56.2082 70.1915 56.0555 70.2799C53.8293 71.5643 50.9445 71.3253 48.7912 69.9919L51.5445 63.2287L51.8171 63.4466C53.4798 64.7589 55.5266 64.0226 56.9435 62.7275C57.3368 62.3693 57.6839 61.9632 57.9765 61.5189C58.4642 60.7691 58.8818 59.9599 59.549 59.3503C60.4725 58.5064 61.8242 58.3413 62.9915 58.6984C64.1589 59.0555 65.5605 60.2037 65.4549 61.5631Z" fill="white"/>
<path d="M65.4432 61.084C65.4432 61.084 65.1302 59.4271 62.3088 60.7202" stroke="black" stroke-width="0.392341" stroke-miterlimit="10"/>
<path d="M63.8737 59.0949C63.8737 59.0949 62.1149 58.5323 61.1357 59.8763" stroke="black" stroke-width="0.392341" stroke-miterlimit="10"/>
<path d="M28.3719 68.5816C28.8416 68.6235 29.3142 68.6157 29.7822 68.5586C31.0055 68.4027 32.1759 67.9646 33.2007 67.2789C33.9491 66.7737 34.5728 66.1051 35.0245 65.3234C35.4762 64.5416 35.7442 63.6675 35.8081 62.7669C35.9329 60.6981 34.6561 58.8818 33.8411 57.076C33.1691 55.5813 32.6795 53.9186 33.0039 52.3115C33.2295 51.1922 34.2731 49.756 34.4238 48.6242C34.541 47.6619 34.5763 46.6913 34.5294 45.7231C34.442 43.4527 34.8452 41.5471 35.7822 41.2571C36.3371 41.0853 36.6702 40.5112 36.4465 39.9755C36.2324 39.461 35.9569 39.4303 34.8846 38.8475C32.0891 37.3269 30.1451 40.1618 29.0718 42.8949C28.5025 44.3435 28.3873 45.9525 27.6683 47.333C26.6929 49.204 24.4619 50.309 23.8916 52.3442C23.5355 53.6152 23.9195 54.9775 23.7467 56.2859C23.4644 58.4277 21.7892 60.1547 21.7844 62.3647C21.7768 65.8197 25.1185 68.3042 28.3719 68.5816Z" stroke="black" stroke-width="0.392341" stroke-miterlimit="10"/>
<path d="M51.1844 84.0923C50.9434 85.8069 50.5844 87.7739 50.1888 89.7429C49.0676 95.3234 47.641 100.937 47.641 100.937" stroke="black" stroke-width="0.392341" stroke-miterlimit="10"/>
<path d="M51.5041 80.8542C51.5089 80.645 51.5118 80.453 51.5041 80.2706C51.4187 76.3346 48.5886 75.3938 47.3713 75.1682C47.1897 75.1327 47.0059 75.1092 46.8212 75.0981" stroke="black" stroke-width="0.392341" stroke-miterlimit="10"/>
<path d="M48.0634 99.2354C48.2201 99.1395 48.3995 99.087 48.5833 99.0835C48.7669 99.08 48.9482 99.1256 49.1084 99.2154C49.2686 99.3053 49.402 99.4363 49.4947 99.5949C49.5874 99.7535 49.6362 99.934 49.6359 100.118C49.6359 100.131 49.6359 100.147 49.6359 100.167C49.6206 100.641 49.4958 101.105 49.271 101.522C49.0464 101.94 48.728 102.3 48.3409 102.574L47.0065 103.524" stroke="black" stroke-width="0.392341" stroke-miterlimit="10"/>
<path d="M32.9051 53.5807C33.0913 53.5048 33.2814 53.4376 33.4734 53.3752C33.8776 52.6284 33.8152 50.9935 33.7768 50.3992L34.1809 49.4882C35.2965 50.1736 36.7729 49.9164 38.1429 49.4392C38.3352 49.372 38.5223 49.2905 38.7025 49.1954C39.5723 48.796 40.7915 47.8514 40.2443 47.3637C39.6971 46.876 39.7355 45.9372 40.0859 45.3612C40.1925 45.1845 40.3816 45.0108 40.5784 45.0655C40.7109 45.102 40.7963 45.2258 40.8721 45.34C40.9681 45.4831 41.0641 45.6204 41.1601 45.7605C41.1937 45.8076 41.2485 45.8565 41.3003 45.8354C41.3222 45.821 41.3393 45.8003 41.3493 45.7759C41.5182 45.4284 41.4865 44.9301 41.5153 44.549C41.5489 44.0949 41.5749 43.638 41.5883 43.182C41.596 42.9304 41.6478 42.6607 41.9176 42.5724C41.972 42.5514 42.0306 42.5431 42.0886 42.5481C42.1468 42.5531 42.2031 42.5712 42.2531 42.6012C42.3032 42.6312 42.3457 42.6722 42.3776 42.7211C42.4095 42.77 42.4297 42.8255 42.4369 42.8834C42.6333 43.9867 42.662 45.1133 42.5224 46.2252C42.3899 47.3896 42.1509 48.6252 41.404 49.564C40.9784 50.1057 40.4083 50.5157 39.7595 50.7468C39.1317 50.9647 39.1518 51.7221 39.1518 52.3864V53.4895C41.0824 53.8812 42.8958 54.3535 44.3953 55.6975C45.387 56.6041 46.3201 57.5727 47.1889 58.5976C49.924 61.8069 50.5153 62.4088 51.8325 63.4466C53.4952 64.7589 55.5429 64.0226 56.9589 62.7275C57.3514 62.3692 57.6978 61.9631 57.9899 61.5189C58.4776 60.7692 58.8952 59.9599 59.5614 59.3503C60.4859 58.5064 61.8376 58.3413 63.0049 58.6984C64.1723 59.0556 65.5758 60.2037 65.4645 61.5631C65.4597 61.695 65.4156 61.8224 65.3377 61.9288C65.1121 62.2063 64.6657 62.1516 64.3624 62.0661C63.0856 61.7032 62.3205 63.0856 61.8376 64.0168C60.6213 66.3707 58.7944 68.5576 56.5163 70.0053C56.3685 70.1013 56.2187 70.1916 56.0651 70.2799C53.5201 71.7487 50.1083 71.2245 47.9195 69.3535L42.6395 64.8712" stroke="black" stroke-width="0.392341" stroke-miterlimit="10"/>
<path d="M33.4736 53.3752C33.4736 53.3752 35.9955 52.5957 39.152 53.4923" stroke="black" stroke-width="0.392341" stroke-miterlimit="10"/>
<path d="M55.9874 46.2184C55.9874 46.2184 56.0066 49.4824 56.7851 50.7391" stroke="black" stroke-width="0.392341" stroke-miterlimit="10"/>
<path d="M58.5459 31.2789C57.9468 32.3013 57.9747 33.0271 58.1302 34.205C58.143 34.3053 58.1273 34.4072 58.0847 34.4989C58.0421 34.5907 57.9746 34.6686 57.8896 34.7236C57.8047 34.7786 57.706 34.8084 57.6049 34.8098C57.5038 34.811 57.4043 34.7838 57.318 34.7311C53.862 32.7419 50.6278 34.3154 46.5017 33.341C44.9868 32.9848 43.0985 32.2485 41.8035 31.0629C41.3739 30.4248 41.1445 29.673 41.1449 28.9039C41.1449 25.6792 45.5503 23.0641 50.982 23.0641C54.4639 23.0641 57.5225 24.1384 59.2716 25.7569C59.2716 25.7569 59.2716 25.7569 59.2764 25.7627C59.7152 26.3936 59.9548 27.1418 59.9638 27.9103C59.9638 29.0709 59.1036 30.3189 58.5459 31.2789Z" fill="#D7E8F0"/>
<path d="M59.9485 27.9122V27.9938C59.9283 29.1237 59.3629 30.1739 58.6919 31.083C58.2426 31.6917 57.7098 32.3666 57.8365 33.1125C57.8922 33.4408 58.0755 33.7394 58.1245 34.0725C58.1735 34.4056 57.9949 34.8136 57.6618 34.8309C57.4506 34.8414 57.2701 34.6907 57.1031 34.5611C56.1114 33.7931 54.8231 33.5051 53.5703 33.4552C52.3175 33.4053 51.0666 33.5694 49.8128 33.605C48.0061 33.6568 46.1706 33.4312 44.5011 32.741C43.0007 32.115 41.6327 31.0974 40.7322 29.7429C39.848 28.4075 40.3712 26.4702 41.3139 25.3096C42.1991 24.221 43.4797 23.524 44.7939 23.0334C48.3277 21.7134 52.3616 21.7451 55.8474 23.1899C56.8823 23.6142 57.8807 24.1749 58.6583 24.9832C59.4167 25.7713 59.9418 26.8216 59.9485 27.9122Z" stroke="black" stroke-width="0.392341" stroke-miterlimit="10"/>
<path d="M45.4464 29.1967C46.1961 29.1967 46.8039 28.589 46.8039 27.8392C46.8039 27.0896 46.1961 26.4818 45.4464 26.4818C44.6968 26.4818 44.089 27.0896 44.089 27.8392C44.089 28.589 44.6968 29.1967 45.4464 29.1967Z" fill="white"/>
<path d="M49.8355 29.1967C50.5851 29.1967 51.1929 28.589 51.1929 27.8392C51.1929 27.0896 50.5851 26.4818 49.8355 26.4818C49.0857 26.4818 48.478 27.0896 48.478 27.8392C48.478 28.589 49.0857 29.1967 49.8355 29.1967Z" fill="white"/>
<path d="M54.3104 29.1967C55.06 29.1967 55.6678 28.589 55.6678 27.8392C55.6678 27.0896 55.06 26.4818 54.3104 26.4818C53.5607 26.4818 52.9529 27.0896 52.9529 27.8392C52.9529 28.589 53.5607 29.1967 54.3104 29.1967Z" fill="white"/>
<g opacity="0.54">
<path opacity="0.54" d="M80.3942 84.7509L79.8422 92.7189C79.5898 93.1999 79.2743 93.6451 78.9043 94.0427C78.8639 94.0283 78.8236 94.013 78.7843 93.9947C78.7103 93.9698 78.6374 93.94 78.5683 93.9112C77.4499 93.4207 76.6003 92.5067 76.3526 91.4709C76.1289 90.5637 76.3305 89.5835 75.8985 88.7311C75.3715 87.6808 73.9382 87.0223 73.7625 85.8376C73.5974 84.7288 74.5958 83.7122 74.4345 82.6255C74.2425 81.3967 72.7401 80.668 72.4588 79.468C72.2831 78.7221 72.4406 77.8658 72.3743 77.0978C72.3013 76.2387 72.1572 75.3871 71.9433 74.5519C74.1676 74.3906 76.4313 75.6165 77.1523 77.3723C77.7407 78.8123 77.3865 80.4895 78.3043 81.7989C78.8054 82.5083 79.6396 83.0392 80.0716 83.7813C80.205 84.0129 80.302 84.2634 80.3596 84.5243C80.3596 84.5426 80.3596 84.5608 80.3663 84.5752C80.3663 84.605 80.374 84.6261 80.3779 84.6482C80.3875 84.7144 80.3942 84.7509 80.3942 84.7509Z" fill="#3FBDF1"/>
<path opacity="0.54" d="M80.3984 84.7451C80.3984 84.7451 80.3916 84.7121 80.3839 84.6482C80.3905 84.6737 80.3954 84.6995 80.3984 84.7257C80.3998 84.7287 80.4005 84.732 80.4005 84.7354C80.4005 84.7387 80.3998 84.742 80.3984 84.7451Z" fill="#3FBDF1"/>
</g>
<path d="M87.747 81.6347C87.459 82.6696 85.8818 83.2984 85.6917 84.3592C85.5237 85.3 86.5624 86.1775 86.3906 87.1327C86.2072 88.157 84.7144 88.7234 84.1662 89.6287C83.7198 90.364 83.9282 91.2098 83.6978 91.9922C83.4309 92.8811 82.5458 93.6751 81.3784 94.0955C81.3054 94.1215 81.2363 94.1464 81.1624 94.1685C81.1221 94.18 81.0779 94.1944 81.0376 94.205C80.6536 93.8872 80.2072 93.3275 79.8453 92.7237L80.3944 84.7509C80.8226 84.388 81.3122 84.0559 81.653 83.6527C82.0226 83.2178 82.1944 82.7426 82.3038 82.2443H82.3154V82.1896C82.4757 81.4034 82.4901 80.5797 82.8597 79.8338C83.6094 78.316 85.9624 77.2581 88.2779 77.3973C88.0594 78.1142 87.91 78.8504 87.8315 79.5957C87.7653 80.2552 87.9285 80.9944 87.747 81.6347Z" fill="#3FBDF1"/>
<path d="M82.3191 82.1829V82.2378H82.3075L82.3191 82.1829Z" fill="#3FBDF1"/>
<path d="M82.3191 82.1829L82.3075 82.2376C82.1981 82.7359 82.0263 83.2111 81.6567 83.6459C81.3159 84.0491 80.8263 84.3813 80.3981 84.7442C80.3998 84.7392 80.3998 84.7338 80.3981 84.7288C80.395 84.7029 80.3902 84.6773 80.3837 84.652C80.3837 84.6299 80.376 84.6088 80.3722 84.5791C80.3722 84.5647 80.3722 84.5464 80.3655 84.5282C80.3079 84.2672 80.2107 84.0167 80.0775 83.7851C79.6455 83.0431 78.8112 82.5122 78.3101 81.8027C78.3101 81.8027 78.5367 78.0635 80.45 76.9259C82.2644 75.8507 82.3191 81.5608 82.3191 82.1829Z" fill="#3FBDF1"/>
<path d="M82.3191 82.1829V82.2378H82.3075L82.3191 82.1829Z" fill="#3FBDF1"/>
<path d="M80.3945 84.7295V84.7518C80.3945 84.7518 80.3878 84.7188 80.38 84.6549C80.3865 84.6794 80.3913 84.7043 80.3945 84.7295Z" fill="#3FBDF1"/>
<path d="M80.2235 84.7509C80.6497 84.388 81.1451 84.0511 81.4868 83.6488C82.4468 82.517 82.0763 81.0703 82.6916 79.829C83.4404 78.3131 85.7953 77.2562 88.1099 77.3944C87.89 78.1111 87.7403 78.8473 87.6625 79.5928C87.5934 80.2571 87.7585 80.9954 87.5771 81.6386C87.2824 82.6735 85.7108 83.3013 85.5198 84.3621C85.3499 85.3019 86.3915 86.1794 86.2196 87.1336C86.0363 88.1589 84.5444 88.7253 83.9953 89.6296C83.547 90.3659 83.7572 91.2098 83.5249 91.9941C83.2436 92.9397 82.2644 93.7749 80.9886 94.1695C80.9483 94.1829 80.9041 94.1973 80.8628 94.2079C80.4788 93.8901 80.0324 93.3304 79.6696 92.7256" stroke="black" stroke-width="0.392341" stroke-miterlimit="10"/>
<path d="M86.6967 78.5819C83.2455 82.2962 81.6221 90.1269 80.9904 94.1704C80.9386 94.5112 80.8944 94.8232 80.8522 95.1045" stroke="black" stroke-width="0.392341" stroke-miterlimit="10"/>
<path d="M87.0153 97.3816L85.4323 106.75C85.3947 107.007 85.2675 107.242 85.0731 107.414C84.8787 107.585 84.6298 107.682 84.3705 107.688H76.0684C75.8066 107.682 75.5555 107.583 75.3604 107.408C75.1654 107.233 75.0392 106.994 75.0048 106.735L73.5408 97.3806L87.0153 97.3816Z" stroke="black" stroke-width="0.392341" stroke-miterlimit="10"/>
<path d="M88.5234 96.3352C88.5092 96.613 88.3906 96.8753 88.1912 97.0693C87.9918 97.2634 87.7265 97.3749 87.4482 97.3816H73.1337C72.8586 97.375 72.596 97.2657 72.3974 97.0753C72.1987 96.8848 72.0786 96.6271 72.0604 96.3525C71.9999 95.6805 72.4972 95.1045 73.1337 95.1045H87.4482C88.079 95.1055 88.5743 95.6728 88.5234 96.3352Z" stroke="black" stroke-width="0.392341" stroke-miterlimit="10"/>
<path d="M78.7343 94.0408C79.3487 93.4312 80.1014 92.0719 80.4345 90.9621C80.7091 90.0472 80.2262 89.1055 80.1148 88.1666C79.942 86.6968 80.6716 85.1167 79.9027 83.7842C79.4735 83.0411 78.6393 82.5131 78.1382 81.8018C77.2156 80.4914 77.5699 78.8152 76.9804 77.3781C76.2595 75.6203 73.9967 74.3944 71.7734 74.5576C71.9858 75.3931 72.1299 76.2446 72.2044 77.1035C72.2707 77.8715 72.1084 78.7279 72.287 79.4728C72.5683 80.6728 74.0774 81.3995 74.2627 82.6293C74.4259 83.716 73.4265 84.7336 73.5907 85.8405C73.7673 87.0271 75.1987 87.6827 75.7276 88.7349C76.1577 89.5883 75.9561 90.5675 76.1788 91.4738C76.4582 92.6066 77.4479 93.6021 78.7343 94.0408Z" stroke="black" stroke-width="0.392341" stroke-miterlimit="10"/>
<path d="M73.1309 75.9343C76.4438 80.2389 78.0029 89.31 78.6163 93.9928C78.6681 94.3989 78.7123 94.7714 78.7517 95.1045" stroke="black" stroke-width="0.392341" stroke-miterlimit="10"/>
<path d="M78.1364 81.8018C78.1364 81.8018 78.3639 78.0626 80.2763 76.9259C82.1886 75.7893 82.1482 82.1589 82.1482 82.1589" stroke="black" stroke-width="0.392341" stroke-miterlimit="10"/>
<path d="M80.2235 84.7509C80.2235 84.7509 79.8328 82.612 80.5182 80.5087" stroke="black" stroke-width="0.392341" stroke-miterlimit="10"/>
<path d="M135.43 60.4648C134.799 60.4648 134.232 60.5742 133.727 60.793C133.227 61.0065 132.799 61.319 132.445 61.7305C132.096 62.1367 131.828 62.6289 131.641 63.207C131.453 63.7852 131.359 64.4362 131.359 65.1602C131.359 66.1185 131.508 66.9518 131.805 67.6602C132.107 68.3633 132.555 68.9076 133.148 69.293C133.747 69.6784 134.495 69.8711 135.391 69.8711C135.901 69.8711 136.38 69.8294 136.828 69.7461C137.281 69.6576 137.721 69.5482 138.148 69.418V70.5742C137.732 70.7305 137.294 70.8451 136.836 70.918C136.378 70.9961 135.833 71.0352 135.203 71.0352C134.042 71.0352 133.07 70.7956 132.289 70.3164C131.513 69.832 130.93 69.1497 130.539 68.2695C130.154 67.3893 129.961 66.3503 129.961 65.1523C129.961 64.2878 130.081 63.4987 130.32 62.7852C130.565 62.0664 130.919 61.4466 131.383 60.9258C131.852 60.4049 132.424 60.0039 133.102 59.7227C133.784 59.4362 134.565 59.293 135.445 59.293C136.023 59.293 136.581 59.3503 137.117 59.4648C137.654 59.5794 138.138 59.7435 138.57 59.957L138.039 61.082C137.674 60.9154 137.273 60.7721 136.836 60.6523C136.404 60.5273 135.935 60.4648 135.43 60.4648ZM147.812 66.582C147.812 67.2852 147.721 67.9128 147.539 68.4648C147.357 69.0169 147.094 69.4831 146.75 69.8633C146.406 70.2435 145.99 70.5352 145.5 70.7383C145.016 70.9362 144.466 71.0352 143.852 71.0352C143.279 71.0352 142.753 70.9362 142.273 70.7383C141.799 70.5352 141.388 70.2435 141.039 69.8633C140.695 69.4831 140.427 69.0169 140.234 68.4648C140.047 67.9128 139.953 67.2852 139.953 66.582C139.953 65.6445 140.112 64.8477 140.43 64.1914C140.747 63.5299 141.201 63.0273 141.789 62.6836C142.383 62.3346 143.089 62.1602 143.906 62.1602C144.688 62.1602 145.37 62.3346 145.953 62.6836C146.542 63.0326 146.997 63.5378 147.32 64.1992C147.648 64.8555 147.812 65.6497 147.812 66.582ZM141.297 66.582C141.297 67.2695 141.388 67.8659 141.57 68.3711C141.753 68.8763 142.034 69.2669 142.414 69.543C142.794 69.819 143.284 69.957 143.883 69.957C144.477 69.957 144.964 69.819 145.344 69.543C145.729 69.2669 146.013 68.8763 146.195 68.3711C146.378 67.8659 146.469 67.2695 146.469 66.582C146.469 65.8997 146.378 65.3112 146.195 64.8164C146.013 64.3164 145.732 63.931 145.352 63.6602C144.971 63.3893 144.479 63.2539 143.875 63.2539C142.984 63.2539 142.331 63.5482 141.914 64.1367C141.503 64.7253 141.297 65.5404 141.297 66.582ZM154.109 62.1602C155.125 62.1602 155.893 62.4102 156.414 62.9102C156.935 63.4049 157.195 64.2018 157.195 65.3008V70.8789H155.914V65.3867C155.914 64.6732 155.75 64.1393 155.422 63.7852C155.099 63.431 154.602 63.2539 153.93 63.2539C152.982 63.2539 152.315 63.5221 151.93 64.0586C151.544 64.5951 151.352 65.3737 151.352 66.3945V70.8789H150.055V62.3164H151.102L151.297 63.5508H151.367C151.549 63.2487 151.781 62.9961 152.062 62.793C152.344 62.5846 152.659 62.4284 153.008 62.3242C153.357 62.2148 153.724 62.1602 154.109 62.1602ZM163.68 63.332H161.547V70.8789H160.25V63.332H158.734V62.707L160.25 62.2773V61.707C160.25 60.9883 160.357 60.4049 160.57 59.957C160.784 59.5039 161.094 59.1706 161.5 58.957C161.906 58.7435 162.401 58.6367 162.984 58.6367C163.312 58.6367 163.612 58.6654 163.883 58.7227C164.159 58.7799 164.401 58.8451 164.609 58.918L164.273 59.9414C164.096 59.8841 163.896 59.832 163.672 59.7852C163.453 59.7331 163.229 59.707 163 59.707C162.505 59.707 162.138 59.8685 161.898 60.1914C161.664 60.5091 161.547 61.0091 161.547 61.6914V62.3164H163.68V63.332ZM166.547 62.3164V70.8789H165.25V62.3164H166.547ZM165.914 59.1133C166.128 59.1133 166.31 59.1836 166.461 59.3242C166.617 59.4596 166.695 59.6732 166.695 59.9648C166.695 60.2513 166.617 60.4648 166.461 60.6055C166.31 60.7461 166.128 60.8164 165.914 60.8164C165.69 60.8164 165.503 60.7461 165.352 60.6055C165.206 60.4648 165.133 60.2513 165.133 59.9648C165.133 59.6732 165.206 59.4596 165.352 59.3242C165.503 59.1836 165.69 59.1133 165.914 59.1133ZM173.18 62.1602C173.352 62.1602 173.531 62.1706 173.719 62.1914C173.906 62.207 174.073 62.2305 174.219 62.2617L174.055 63.4648C173.914 63.4284 173.758 63.3997 173.586 63.3789C173.414 63.3581 173.253 63.3477 173.102 63.3477C172.758 63.3477 172.432 63.418 172.125 63.5586C171.823 63.694 171.557 63.8919 171.328 64.1523C171.099 64.4076 170.919 64.7174 170.789 65.082C170.659 65.4414 170.594 65.8424 170.594 66.2852V70.8789H169.289V62.3164H170.367L170.508 63.8945H170.562C170.74 63.5768 170.953 63.2878 171.203 63.0273C171.453 62.7617 171.742 62.5508 172.07 62.3945C172.404 62.2383 172.773 62.1602 173.18 62.1602ZM179.039 62.1758C180.06 62.1758 180.818 62.4049 181.312 62.8633C181.807 63.3216 182.055 64.0534 182.055 65.0586V70.8789H181.109L180.859 69.6133H180.797C180.557 69.9258 180.307 70.1888 180.047 70.4023C179.786 70.6107 179.484 70.7695 179.141 70.8789C178.802 70.9831 178.385 71.0352 177.891 71.0352C177.37 71.0352 176.906 70.944 176.5 70.7617C176.099 70.5794 175.781 70.3034 175.547 69.9336C175.318 69.5638 175.203 69.0951 175.203 68.5273C175.203 67.6732 175.542 67.0169 176.219 66.5586C176.896 66.1003 177.927 65.8503 179.312 65.8086L180.789 65.7461V65.2227C180.789 64.4831 180.63 63.9648 180.312 63.668C179.995 63.3711 179.547 63.2227 178.969 63.2227C178.521 63.2227 178.094 63.2878 177.688 63.418C177.281 63.5482 176.896 63.7018 176.531 63.8789L176.133 62.8945C176.518 62.6966 176.961 62.5273 177.461 62.3867C177.961 62.2461 178.487 62.1758 179.039 62.1758ZM180.773 66.6602L179.469 66.7148C178.401 66.7565 177.648 66.931 177.211 67.2383C176.773 67.5456 176.555 67.9805 176.555 68.543C176.555 69.0326 176.703 69.3945 177 69.6289C177.297 69.8633 177.69 69.9805 178.18 69.9805C178.94 69.9805 179.562 69.7695 180.047 69.3477C180.531 68.9258 180.773 68.293 180.773 67.4492V66.6602ZM196.266 66.582C196.266 67.2852 196.174 67.9128 195.992 68.4648C195.81 69.0169 195.547 69.4831 195.203 69.8633C194.859 70.2435 194.443 70.5352 193.953 70.7383C193.469 70.9362 192.919 71.0352 192.305 71.0352C191.732 71.0352 191.206 70.9362 190.727 70.7383C190.253 70.5352 189.841 70.2435 189.492 69.8633C189.148 69.4831 188.88 69.0169 188.688 68.4648C188.5 67.9128 188.406 67.2852 188.406 66.582C188.406 65.6445 188.565 64.8477 188.883 64.1914C189.201 63.5299 189.654 63.0273 190.242 62.6836C190.836 62.3346 191.542 62.1602 192.359 62.1602C193.141 62.1602 193.823 62.3346 194.406 62.6836C194.995 63.0326 195.451 63.5378 195.773 64.1992C196.102 64.8555 196.266 65.6497 196.266 66.582ZM189.75 66.582C189.75 67.2695 189.841 67.8659 190.023 68.3711C190.206 68.8763 190.487 69.2669 190.867 69.543C191.247 69.819 191.737 69.957 192.336 69.957C192.93 69.957 193.417 69.819 193.797 69.543C194.182 69.2669 194.466 68.8763 194.648 68.3711C194.831 67.8659 194.922 67.2695 194.922 66.582C194.922 65.8997 194.831 65.3112 194.648 64.8164C194.466 64.3164 194.185 63.931 193.805 63.6602C193.424 63.3893 192.932 63.2539 192.328 63.2539C191.438 63.2539 190.784 63.5482 190.367 64.1367C189.956 64.7253 189.75 65.5404 189.75 66.582ZM204.047 68.5352C204.047 69.082 203.909 69.543 203.633 69.918C203.362 70.2878 202.971 70.5664 202.461 70.7539C201.956 70.9414 201.352 71.0352 200.648 71.0352C200.049 71.0352 199.531 70.9883 199.094 70.8945C198.656 70.8008 198.273 70.668 197.945 70.4961V69.3008C198.294 69.4727 198.711 69.6289 199.195 69.7695C199.68 69.9102 200.174 69.9805 200.68 69.9805C201.419 69.9805 201.956 69.8607 202.289 69.6211C202.622 69.3815 202.789 69.056 202.789 68.6445C202.789 68.4102 202.721 68.2044 202.586 68.0273C202.456 67.8451 202.234 67.6706 201.922 67.5039C201.609 67.332 201.177 67.1445 200.625 66.9414C200.078 66.7331 199.604 66.5273 199.203 66.3242C198.807 66.1159 198.5 65.8633 198.281 65.5664C198.068 65.2695 197.961 64.8841 197.961 64.4102C197.961 63.6862 198.253 63.1315 198.836 62.7461C199.424 62.3555 200.195 62.1602 201.148 62.1602C201.664 62.1602 202.146 62.2122 202.594 62.3164C203.047 62.4154 203.469 62.5508 203.859 62.7227L203.422 63.7617C203.068 63.6107 202.69 63.4831 202.289 63.3789C201.888 63.2747 201.479 63.2227 201.062 63.2227C200.464 63.2227 200.003 63.3216 199.68 63.5195C199.362 63.7174 199.203 63.9883 199.203 64.332C199.203 64.5977 199.276 64.8164 199.422 64.9883C199.573 65.1602 199.812 65.3216 200.141 65.4727C200.469 65.6237 200.901 65.8008 201.438 66.0039C201.974 66.2018 202.438 66.4076 202.828 66.6211C203.219 66.8294 203.518 67.0846 203.727 67.3867C203.94 67.6836 204.047 68.0664 204.047 68.5352ZM217.359 62.3164V70.8789H216.297L216.109 69.6758H216.039C215.862 69.9727 215.633 70.2227 215.352 70.4258C215.07 70.6289 214.753 70.7799 214.398 70.8789C214.049 70.9831 213.677 71.0352 213.281 71.0352C212.604 71.0352 212.036 70.9258 211.578 70.707C211.12 70.4883 210.773 70.1497 210.539 69.6914C210.31 69.2331 210.195 68.6445 210.195 67.9258V62.3164H211.508V67.832C211.508 68.5456 211.669 69.0794 211.992 69.4336C212.315 69.7826 212.807 69.957 213.469 69.957C214.104 69.957 214.609 69.8372 214.984 69.5977C215.365 69.3581 215.638 69.0065 215.805 68.543C215.971 68.0742 216.055 67.5013 216.055 66.8242V62.3164H217.359ZM216.094 58.6211V58.7773C215.99 58.9284 215.846 59.1107 215.664 59.3242C215.487 59.5326 215.289 59.7539 215.07 59.9883C214.852 60.2174 214.63 60.4362 214.406 60.6445C214.188 60.8529 213.984 61.0326 213.797 61.1836H212.93V60.9961C213.096 60.7982 213.279 60.5612 213.477 60.2852C213.674 60.0039 213.867 59.7174 214.055 59.4258C214.242 59.1289 214.398 58.8607 214.523 58.6211H216.094ZM221.406 70.8789H220.102V58.7227H221.406V70.8789ZM226.914 69.9727C227.128 69.9727 227.346 69.9544 227.57 69.918C227.794 69.8815 227.977 69.8372 228.117 69.7852V70.793C227.966 70.8607 227.755 70.918 227.484 70.9648C227.219 71.0117 226.958 71.0352 226.703 71.0352C226.25 71.0352 225.839 70.957 225.469 70.8008C225.099 70.6393 224.802 70.3685 224.578 69.9883C224.359 69.6081 224.25 69.082 224.25 68.4102V63.332H223.031V62.6992L224.258 62.1914L224.773 60.332H225.555V62.3164H228.062V63.332H225.555V68.3711C225.555 68.9076 225.677 69.3086 225.922 69.5742C226.172 69.8398 226.503 69.9727 226.914 69.9727ZM231.148 62.3164V70.8789H229.852V62.3164H231.148ZM230.516 59.1133C230.729 59.1133 230.911 59.1836 231.062 59.3242C231.219 59.4596 231.297 59.6732 231.297 59.9648C231.297 60.2513 231.219 60.4648 231.062 60.6055C230.911 60.7461 230.729 60.8164 230.516 60.8164C230.292 60.8164 230.104 60.7461 229.953 60.6055C229.807 60.4648 229.734 60.2513 229.734 59.9648C229.734 59.6732 229.807 59.4596 229.953 59.3242C230.104 59.1836 230.292 59.1133 230.516 59.1133ZM243.195 62.1602C244.138 62.1602 244.849 62.4076 245.328 62.9023C245.807 63.3919 246.047 64.181 246.047 65.2695V70.8789H244.766V65.332C244.766 64.6393 244.615 64.1211 244.312 63.7773C244.016 63.4284 243.573 63.2539 242.984 63.2539C242.156 63.2539 241.555 63.4935 241.18 63.9727C240.805 64.4518 240.617 65.1576 240.617 66.0898V70.8789H239.328V65.332C239.328 64.8685 239.26 64.4831 239.125 64.1758C238.995 63.8685 238.797 63.6393 238.531 63.4883C238.271 63.332 237.94 63.2539 237.539 63.2539C236.971 63.2539 236.516 63.3711 236.172 63.6055C235.828 63.8398 235.578 64.1888 235.422 64.6523C235.271 65.1107 235.195 65.6758 235.195 66.3477V70.8789H233.898V62.3164H234.945L235.141 63.5273H235.211C235.383 63.2305 235.599 62.9805 235.859 62.7773C236.12 62.5742 236.411 62.4206 236.734 62.3164C237.057 62.2122 237.401 62.1602 237.766 62.1602C238.417 62.1602 238.961 62.2826 239.398 62.5273C239.841 62.7669 240.161 63.1341 240.359 63.6289H240.43C240.711 63.1341 241.096 62.7669 241.586 62.5273C242.076 62.2826 242.612 62.1602 243.195 62.1602ZM256.094 66.582C256.094 67.2852 256.003 67.9128 255.82 68.4648C255.638 69.0169 255.375 69.4831 255.031 69.8633C254.688 70.2435 254.271 70.5352 253.781 70.7383C253.297 70.9362 252.747 71.0352 252.133 71.0352C251.56 71.0352 251.034 70.9362 250.555 70.7383C250.081 70.5352 249.669 70.2435 249.32 69.8633C248.977 69.4831 248.708 69.0169 248.516 68.4648C248.328 67.9128 248.234 67.2852 248.234 66.582C248.234 65.6445 248.393 64.8477 248.711 64.1914C249.029 63.5299 249.482 63.0273 250.07 62.6836C250.664 62.3346 251.37 62.1602 252.188 62.1602C252.969 62.1602 253.651 62.3346 254.234 62.6836C254.823 63.0326 255.279 63.5378 255.602 64.1992C255.93 64.8555 256.094 65.6497 256.094 66.582ZM249.578 66.582C249.578 67.2695 249.669 67.8659 249.852 68.3711C250.034 68.8763 250.315 69.2669 250.695 69.543C251.076 69.819 251.565 69.957 252.164 69.957C252.758 69.957 253.245 69.819 253.625 69.543C254.01 69.2669 254.294 68.8763 254.477 68.3711C254.659 67.8659 254.75 67.2695 254.75 66.582C254.75 65.8997 254.659 65.3112 254.477 64.8164C254.294 64.3164 254.013 63.931 253.633 63.6602C253.253 63.3893 252.76 63.2539 252.156 63.2539C251.266 63.2539 250.612 63.5482 250.195 64.1367C249.784 64.7253 249.578 65.5404 249.578 66.582ZM263.875 68.5352C263.875 69.082 263.737 69.543 263.461 69.918C263.19 70.2878 262.799 70.5664 262.289 70.7539C261.784 70.9414 261.18 71.0352 260.477 71.0352C259.878 71.0352 259.359 70.9883 258.922 70.8945C258.484 70.8008 258.102 70.668 257.773 70.4961V69.3008C258.122 69.4727 258.539 69.6289 259.023 69.7695C259.508 69.9102 260.003 69.9805 260.508 69.9805C261.247 69.9805 261.784 69.8607 262.117 69.6211C262.451 69.3815 262.617 69.056 262.617 68.6445C262.617 68.4102 262.549 68.2044 262.414 68.0273C262.284 67.8451 262.062 67.6706 261.75 67.5039C261.438 67.332 261.005 67.1445 260.453 66.9414C259.906 66.7331 259.432 66.5273 259.031 66.3242C258.635 66.1159 258.328 65.8633 258.109 65.5664C257.896 65.2695 257.789 64.8841 257.789 64.4102C257.789 63.6862 258.081 63.1315 258.664 62.7461C259.253 62.3555 260.023 62.1602 260.977 62.1602C261.492 62.1602 261.974 62.2122 262.422 62.3164C262.875 62.4154 263.297 62.5508 263.688 62.7227L263.25 63.7617C262.896 63.6107 262.518 63.4831 262.117 63.3789C261.716 63.2747 261.307 63.2227 260.891 63.2227C260.292 63.2227 259.831 63.3216 259.508 63.5195C259.19 63.7174 259.031 63.9883 259.031 64.332C259.031 64.5977 259.104 64.8164 259.25 64.9883C259.401 65.1602 259.641 65.3216 259.969 65.4727C260.297 65.6237 260.729 65.8008 261.266 66.0039C261.802 66.2018 262.266 66.4076 262.656 66.6211C263.047 66.8294 263.346 67.0846 263.555 67.3867C263.768 67.6836 263.875 68.0664 263.875 68.5352ZM274.875 61.9805C274.995 61.9805 275.133 61.9883 275.289 62.0039C275.451 62.0143 275.581 62.0299 275.68 62.0508L275.5 64.2852C275.422 64.2591 275.31 64.2409 275.164 64.2305C275.023 64.2148 274.901 64.207 274.797 64.207C274.49 64.207 274.19 64.2461 273.898 64.3242C273.612 64.4023 273.354 64.5299 273.125 64.707C272.896 64.8789 272.714 65.1081 272.578 65.3945C272.448 65.6758 272.383 66.0221 272.383 66.4336V70.8789H270V62.1445H271.805L272.156 63.6133H272.273C272.445 63.3164 272.659 63.0456 272.914 62.8008C273.174 62.5508 273.469 62.3529 273.797 62.207C274.13 62.056 274.49 61.9805 274.875 61.9805ZM280.867 61.9805C281.674 61.9805 282.37 62.1367 282.953 62.4492C283.536 62.7565 283.987 63.2044 284.305 63.793C284.622 64.3815 284.781 65.1003 284.781 65.9492V67.1055H279.148C279.174 67.7773 279.375 68.306 279.75 68.6914C280.13 69.0716 280.656 69.2617 281.328 69.2617C281.885 69.2617 282.396 69.2044 282.859 69.0898C283.323 68.9753 283.799 68.8034 284.289 68.5742V70.418C283.857 70.6315 283.404 70.7878 282.93 70.8867C282.461 70.9857 281.891 71.0352 281.219 71.0352C280.344 71.0352 279.568 70.8737 278.891 70.5508C278.219 70.2279 277.69 69.7357 277.305 69.0742C276.924 68.4128 276.734 67.5794 276.734 66.5742C276.734 65.5534 276.906 64.7044 277.25 64.0273C277.599 63.3451 278.083 62.8346 278.703 62.4961C279.323 62.1523 280.044 61.9805 280.867 61.9805ZM280.883 63.6758C280.419 63.6758 280.034 63.8242 279.727 64.1211C279.424 64.418 279.25 64.8841 279.203 65.5195H282.547C282.542 65.1654 282.477 64.8503 282.352 64.5742C282.232 64.2982 282.049 64.0794 281.805 63.918C281.565 63.7565 281.258 63.6758 280.883 63.6758ZM289.102 70.8789H286.719V58.7227H289.102V70.8789ZM295.211 61.9805C296.018 61.9805 296.714 62.1367 297.297 62.4492C297.88 62.7565 298.331 63.2044 298.648 63.793C298.966 64.3815 299.125 65.1003 299.125 65.9492V67.1055H293.492C293.518 67.7773 293.719 68.306 294.094 68.6914C294.474 69.0716 295 69.2617 295.672 69.2617C296.229 69.2617 296.74 69.2044 297.203 69.0898C297.667 68.9753 298.143 68.8034 298.633 68.5742V70.418C298.201 70.6315 297.747 70.7878 297.273 70.8867C296.805 70.9857 296.234 71.0352 295.562 71.0352C294.688 71.0352 293.911 70.8737 293.234 70.5508C292.562 70.2279 292.034 69.7357 291.648 69.0742C291.268 68.4128 291.078 67.5794 291.078 66.5742C291.078 65.5534 291.25 64.7044 291.594 64.0273C291.943 63.3451 292.427 62.8346 293.047 62.4961C293.667 62.1523 294.388 61.9805 295.211 61.9805ZM295.227 63.6758C294.763 63.6758 294.378 63.8242 294.07 64.1211C293.768 64.418 293.594 64.8841 293.547 65.5195H296.891C296.885 65.1654 296.82 64.8503 296.695 64.5742C296.576 64.2982 296.393 64.0794 296.148 63.918C295.909 63.7565 295.602 63.6758 295.227 63.6758ZM304.641 61.9648C305.812 61.9648 306.711 62.2201 307.336 62.7305C307.961 63.2409 308.273 64.0169 308.273 65.0586V70.8789H306.609L306.148 69.6914H306.086C305.836 70.0039 305.581 70.2591 305.32 70.457C305.06 70.6549 304.76 70.8008 304.422 70.8945C304.083 70.9883 303.672 71.0352 303.188 71.0352C302.672 71.0352 302.208 70.9362 301.797 70.7383C301.391 70.5404 301.07 70.2383 300.836 69.832C300.602 69.4206 300.484 68.8997 300.484 68.2695C300.484 67.3424 300.81 66.6602 301.461 66.2227C302.112 65.7799 303.089 65.5352 304.391 65.4883L305.906 65.4414V65.0586C305.906 64.6003 305.786 64.2643 305.547 64.0508C305.307 63.8372 304.974 63.7305 304.547 63.7305C304.125 63.7305 303.711 63.7904 303.305 63.9102C302.898 64.0299 302.492 64.181 302.086 64.3633L301.297 62.7539C301.76 62.5091 302.279 62.3164 302.852 62.1758C303.43 62.0352 304.026 61.9648 304.641 61.9648ZM305.906 66.832L304.984 66.8633C304.214 66.8841 303.677 67.0221 303.375 67.2773C303.078 67.5326 302.93 67.8685 302.93 68.2852C302.93 68.6497 303.036 68.9102 303.25 69.0664C303.464 69.2174 303.742 69.293 304.086 69.293C304.596 69.293 305.026 69.1419 305.375 68.8398C305.729 68.5378 305.906 68.1081 305.906 67.5508V66.832ZM316.828 68.2852C316.828 68.8789 316.688 69.3815 316.406 69.793C316.13 70.1992 315.716 70.5091 315.164 70.7227C314.612 70.931 313.924 71.0352 313.102 71.0352C312.492 71.0352 311.969 70.9961 311.531 70.918C311.099 70.8398 310.661 70.7096 310.219 70.5273V68.5586C310.693 68.7721 311.201 68.9492 311.742 69.0898C312.289 69.2253 312.768 69.293 313.18 69.293C313.643 69.293 313.974 69.2253 314.172 69.0898C314.375 68.9492 314.477 68.7669 314.477 68.543C314.477 68.3971 314.435 68.2669 314.352 68.1523C314.273 68.0326 314.102 67.8997 313.836 67.7539C313.57 67.6029 313.154 67.4076 312.586 67.168C312.039 66.9388 311.589 66.707 311.234 66.4727C310.885 66.2383 310.625 65.9622 310.453 65.6445C310.286 65.3216 310.203 64.9128 310.203 64.418C310.203 63.6107 310.516 63.0039 311.141 62.5977C311.771 62.1862 312.612 61.9805 313.664 61.9805C314.206 61.9805 314.721 62.0352 315.211 62.1445C315.706 62.2539 316.214 62.4284 316.734 62.668L316.016 64.3867C315.583 64.1992 315.174 64.0456 314.789 63.9258C314.409 63.806 314.021 63.7461 313.625 63.7461C313.276 63.7461 313.013 63.793 312.836 63.8867C312.659 63.9805 312.57 64.1237 312.57 64.3164C312.57 64.457 312.615 64.582 312.703 64.6914C312.797 64.8008 312.974 64.9232 313.234 65.0586C313.5 65.1888 313.888 65.3581 314.398 65.5664C314.893 65.7695 315.323 65.9831 315.688 66.207C316.052 66.4258 316.333 66.6992 316.531 67.0273C316.729 67.3503 316.828 67.7695 316.828 68.2852ZM322.289 61.9805C323.096 61.9805 323.792 62.1367 324.375 62.4492C324.958 62.7565 325.409 63.2044 325.727 63.793C326.044 64.3815 326.203 65.1003 326.203 65.9492V67.1055H320.57C320.596 67.7773 320.797 68.306 321.172 68.6914C321.552 69.0716 322.078 69.2617 322.75 69.2617C323.307 69.2617 323.818 69.2044 324.281 69.0898C324.745 68.9753 325.221 68.8034 325.711 68.5742V70.418C325.279 70.6315 324.826 70.7878 324.352 70.8867C323.883 70.9857 323.312 71.0352 322.641 71.0352C321.766 71.0352 320.99 70.8737 320.312 70.5508C319.641 70.2279 319.112 69.7357 318.727 69.0742C318.346 68.4128 318.156 67.5794 318.156 66.5742C318.156 65.5534 318.328 64.7044 318.672 64.0273C319.021 63.3451 319.505 62.8346 320.125 62.4961C320.745 62.1523 321.466 61.9805 322.289 61.9805ZM322.305 63.6758C321.841 63.6758 321.456 63.8242 321.148 64.1211C320.846 64.418 320.672 64.8841 320.625 65.5195H323.969C323.964 65.1654 323.898 64.8503 323.773 64.5742C323.654 64.2982 323.471 64.0794 323.227 63.918C322.987 63.7565 322.68 63.6758 322.305 63.6758ZM334.234 68.2852C334.234 68.8789 334.094 69.3815 333.812 69.793C333.536 70.1992 333.122 70.5091 332.57 70.7227C332.018 70.931 331.331 71.0352 330.508 71.0352C329.898 71.0352 329.375 70.9961 328.938 70.918C328.505 70.8398 328.068 70.7096 327.625 70.5273V68.5586C328.099 68.7721 328.607 68.9492 329.148 69.0898C329.695 69.2253 330.174 69.293 330.586 69.293C331.049 69.293 331.38 69.2253 331.578 69.0898C331.781 68.9492 331.883 68.7669 331.883 68.543C331.883 68.3971 331.841 68.2669 331.758 68.1523C331.68 68.0326 331.508 67.8997 331.242 67.7539C330.977 67.6029 330.56 67.4076 329.992 67.168C329.445 66.9388 328.995 66.707 328.641 66.4727C328.292 66.2383 328.031 65.9622 327.859 65.6445C327.693 65.3216 327.609 64.9128 327.609 64.418C327.609 63.6107 327.922 63.0039 328.547 62.5977C329.177 62.1862 330.018 61.9805 331.07 61.9805C331.612 61.9805 332.128 62.0352 332.617 62.1445C333.112 62.2539 333.62 62.4284 334.141 62.668L333.422 64.3867C332.99 64.1992 332.581 64.0456 332.195 63.9258C331.815 63.806 331.427 63.7461 331.031 63.7461C330.682 63.7461 330.419 63.793 330.242 63.8867C330.065 63.9805 329.977 64.1237 329.977 64.3164C329.977 64.457 330.021 64.582 330.109 64.6914C330.203 64.8008 330.38 64.9232 330.641 65.0586C330.906 65.1888 331.294 65.3581 331.805 65.5664C332.299 65.7695 332.729 65.9831 333.094 66.207C333.458 66.4258 333.74 66.6992 333.938 67.0273C334.135 67.3503 334.234 67.7695 334.234 68.2852ZM343.414 71.0352C342.331 71.0352 341.471 70.6654 340.836 69.9258C340.206 69.1862 339.891 68.0872 339.891 66.6289C339.891 65.1549 340.214 64.043 340.859 63.293C341.505 62.5378 342.365 62.1602 343.438 62.1602C343.891 62.1602 344.286 62.2201 344.625 62.3398C344.964 62.4596 345.255 62.6211 345.5 62.8242C345.745 63.0221 345.951 63.2487 346.117 63.5039H346.211C346.19 63.3424 346.169 63.1211 346.148 62.8398C346.128 62.5586 346.117 62.3294 346.117 62.1523V58.7227H347.414V70.8789H346.367L346.172 69.6602H346.117C345.956 69.9154 345.75 70.1471 345.5 70.3555C345.255 70.5638 344.961 70.7305 344.617 70.8555C344.279 70.9753 343.878 71.0352 343.414 71.0352ZM343.617 69.957C344.534 69.957 345.182 69.6966 345.562 69.1758C345.943 68.6549 346.133 67.8815 346.133 66.8555V66.6211C346.133 65.5326 345.951 64.6966 345.586 64.1133C345.227 63.5299 344.57 63.2383 343.617 63.2383C342.82 63.2383 342.224 63.5456 341.828 64.1602C341.432 64.7695 341.234 65.6029 341.234 66.6602C341.234 67.7122 341.43 68.5247 341.82 69.0977C342.216 69.6706 342.815 69.957 343.617 69.957ZM353.367 62.1758C354.388 62.1758 355.146 62.4049 355.641 62.8633C356.135 63.3216 356.383 64.0534 356.383 65.0586V70.8789H355.438L355.188 69.6133H355.125C354.885 69.9258 354.635 70.1888 354.375 70.4023C354.115 70.6107 353.812 70.7695 353.469 70.8789C353.13 70.9831 352.714 71.0352 352.219 71.0352C351.698 71.0352 351.234 70.944 350.828 70.7617C350.427 70.5794 350.109 70.3034 349.875 69.9336C349.646 69.5638 349.531 69.0951 349.531 68.5273C349.531 67.6732 349.87 67.0169 350.547 66.5586C351.224 66.1003 352.255 65.8503 353.641 65.8086L355.117 65.7461V65.2227C355.117 64.4831 354.958 63.9648 354.641 63.668C354.323 63.3711 353.875 63.2227 353.297 63.2227C352.849 63.2227 352.422 63.2878 352.016 63.418C351.609 63.5482 351.224 63.7018 350.859 63.8789L350.461 62.8945C350.846 62.6966 351.289 62.5273 351.789 62.3867C352.289 62.2461 352.815 62.1758 353.367 62.1758ZM355.102 66.6602L353.797 66.7148C352.729 66.7565 351.977 66.931 351.539 67.2383C351.102 67.5456 350.883 67.9805 350.883 68.543C350.883 69.0326 351.031 69.3945 351.328 69.6289C351.625 69.8633 352.018 69.9805 352.508 69.9805C353.268 69.9805 353.891 69.7695 354.375 69.3477C354.859 68.9258 355.102 68.293 355.102 67.4492V66.6602ZM376.383 59.457L373.328 70.8789H371.992L369.727 63.1914C369.659 62.9727 369.594 62.7539 369.531 62.5352C369.474 62.3112 369.419 62.1003 369.367 61.9023C369.315 61.6992 369.271 61.5221 369.234 61.3711C369.203 61.2148 369.18 61.0977 369.164 61.0195C369.154 61.0977 369.133 61.2122 369.102 61.3633C369.076 61.5143 369.039 61.6888 368.992 61.8867C368.951 62.0846 368.898 62.2956 368.836 62.5195C368.779 62.7435 368.716 62.9701 368.648 63.1992L366.445 70.8789H365.109L362.078 59.457H363.461L365.297 66.6211C365.359 66.8607 365.417 67.0977 365.469 67.332C365.526 67.5612 365.576 67.7852 365.617 68.0039C365.664 68.2227 365.706 68.4362 365.742 68.6445C365.779 68.8529 365.812 69.056 365.844 69.2539C365.87 69.0508 365.904 68.8398 365.945 68.6211C365.987 68.3971 366.031 68.1706 366.078 67.9414C366.13 67.7122 366.185 67.4805 366.242 67.2461C366.305 67.0117 366.37 66.7773 366.438 66.543L368.492 59.457H369.859L372 66.5977C372.073 66.8424 372.141 67.0846 372.203 67.3242C372.266 67.5638 372.32 67.7982 372.367 68.0273C372.419 68.2513 372.464 68.4674 372.5 68.6758C372.542 68.8789 372.578 69.0716 372.609 69.2539C372.646 68.9987 372.69 68.7305 372.742 68.4492C372.794 68.168 372.854 67.8737 372.922 67.5664C372.995 67.2591 373.073 66.9414 373.156 66.6133L374.992 59.457H376.383ZM385.375 66.582C385.375 67.2852 385.284 67.9128 385.102 68.4648C384.919 69.0169 384.656 69.4831 384.312 69.8633C383.969 70.2435 383.552 70.5352 383.062 70.7383C382.578 70.9362 382.029 71.0352 381.414 71.0352C380.841 71.0352 380.315 70.9362 379.836 70.7383C379.362 70.5352 378.951 70.2435 378.602 69.8633C378.258 69.4831 377.99 69.0169 377.797 68.4648C377.609 67.9128 377.516 67.2852 377.516 66.582C377.516 65.6445 377.674 64.8477 377.992 64.1914C378.31 63.5299 378.763 63.0273 379.352 62.6836C379.945 62.3346 380.651 62.1602 381.469 62.1602C382.25 62.1602 382.932 62.3346 383.516 62.6836C384.104 63.0326 384.56 63.5378 384.883 64.1992C385.211 64.8555 385.375 65.6497 385.375 66.582ZM378.859 66.582C378.859 67.2695 378.951 67.8659 379.133 68.3711C379.315 68.8763 379.596 69.2669 379.977 69.543C380.357 69.819 380.846 69.957 381.445 69.957C382.039 69.957 382.526 69.819 382.906 69.543C383.292 69.2669 383.576 68.8763 383.758 68.3711C383.94 67.8659 384.031 67.2695 384.031 66.582C384.031 65.8997 383.94 65.3112 383.758 64.8164C383.576 64.3164 383.294 63.931 382.914 63.6602C382.534 63.3893 382.042 63.2539 381.438 63.2539C380.547 63.2539 379.893 63.5482 379.477 64.1367C379.065 64.7253 378.859 65.5404 378.859 66.582ZM391.508 62.1602C391.68 62.1602 391.859 62.1706 392.047 62.1914C392.234 62.207 392.401 62.2305 392.547 62.2617L392.383 63.4648C392.242 63.4284 392.086 63.3997 391.914 63.3789C391.742 63.3581 391.581 63.3477 391.43 63.3477C391.086 63.3477 390.76 63.418 390.453 63.5586C390.151 63.694 389.885 63.8919 389.656 64.1523C389.427 64.4076 389.247 64.7174 389.117 65.082C388.987 65.4414 388.922 65.8424 388.922 66.2852V70.8789H387.617V62.3164H388.695L388.836 63.8945H388.891C389.068 63.5768 389.281 63.2878 389.531 63.0273C389.781 62.7617 390.07 62.5508 390.398 62.3945C390.732 62.2383 391.102 62.1602 391.508 62.1602ZM397.594 71.0352C396.823 71.0352 396.143 70.8763 395.555 70.5586C394.966 70.2409 394.508 69.7565 394.18 69.1055C393.852 68.4544 393.688 67.6341 393.688 66.6445C393.688 65.6081 393.859 64.7617 394.203 64.1055C394.552 63.444 395.031 62.9544 395.641 62.6367C396.25 62.319 396.943 62.1602 397.719 62.1602C398.146 62.1602 398.557 62.2044 398.953 62.293C399.354 62.3763 399.682 62.4831 399.938 62.6133L399.547 63.6992C399.286 63.5951 398.984 63.5013 398.641 63.418C398.302 63.3346 397.984 63.293 397.688 63.293C397.094 63.293 396.599 63.4206 396.203 63.6758C395.812 63.931 395.518 64.306 395.32 64.8008C395.128 65.2956 395.031 65.9049 395.031 66.6289C395.031 67.3216 395.125 67.9128 395.312 68.4023C395.505 68.8919 395.789 69.2669 396.164 69.5273C396.544 69.7826 397.018 69.9102 397.586 69.9102C398.039 69.9102 398.448 69.8633 398.812 69.7695C399.177 69.6706 399.508 69.556 399.805 69.4258V70.582C399.518 70.7279 399.198 70.8398 398.844 70.918C398.495 70.9961 398.078 71.0352 397.594 71.0352Z" fill="#0B2C46"/>
<rect x="1.48438" y="1.37891" width="895" height="127" rx="4.5" stroke="#C3ECFA"/>
</svg>
